<svg xmlns="http://www.w3.org/2000/svg" style="fill: #fff"><path d="M297.097 21.348c-.757.826-2.08 2.403-2.7 3.168-1.812-.62-2.893-1.983-2.893-3.643V12.02c-.88-.53-2.326-1.655-3.01-2.22h-.03v10.54c.26.474.855.888 1.31.888.31 0 .426-.088.853-.53l.254.233c-.87.95-2.44 2.69-3.23 3.56-1.1-1-2.21-1.89-3.29-2.63v-.02c.54-.26.69-.77.69-1.63v-8.87c-.23-.41-.65-.83-.94-.83-.25 0-.46.14-.77.52l-.27-.31c1.16-1.06 2.56-2.49 3.21-3.26l2.19 2.11c.57-.44 1.76-1.49 2.39-2.1.97.83 3.07 2.28 4.86 3.35v.03c-.45.27-.73.59-.73 1.28v8.29c0 .74.63 1.33 1.08 1.33.29 0 .52-.21.82-.59l.26.24zm-13.57-.118c-1.077 1.097-2.384 2.487-3.036 3.257l-2.18-2.103c-.56.443-1.75 1.49-2.38 2.103-.96-.828-3.06-2.278-4.85-3.346v-.02c.46-.27.74-.59.74-1.27v-8.29c0-.74-.62-1.33-1.07-1.33-.28 0-.51.21-.82.59l-.25-.23c.75-.82 2.08-2.4 2.7-3.16 1.82.62 2.9 1.99 2.9 3.64v8.85c.88.53 2.33 1.66 3.01 2.22h.03V11.38c-.27-.487-.58-.84-.95-.84-.254 0-.45.163-.76.486l-.27-.34c1.02-.914 2.5-2.385 3.29-3.25.96 1.038 1.95 2.04 2.96 2.963v.03c-.57.2-.832.58-.832 1.62v8.49c.228.41.6.86.88.86.255 0 .428-.07.768-.39l.177.21zM256.31 3.32c-.965.857-1.847 1.895-2.783 2.842-1.075-1.097-1.618-1.688-2.07-1.688-.31 0-.48.06-.766.355l-.28-.3c.91-.86 2.3-2.28 2.79-2.81.97 1.03 1.71 1.65 2.05 1.65s.51-.09.8-.33l.29.26zm1.93 17.612l-3.235 3.555c-1.022-.918-2.44-2.07-3.264-2.635v-.028c.43-.18.65-.683.65-1.72V11.4c-.25-.59-.56-.857-.93-.857-.19 0-.45.09-.79.474l-.31-.326c1-.88 2.46-2.28 3.35-3.25.57.71 1.99 2.13 2.95 2.96v.03c-.51.21-.81.56-.81 1.19v8.74c.48.65.85.89 1.28.89.23 0 .49-.02.88-.53l.26.24zm-7.863-11.13c-.623.622-1.448 1.658-2.13 3.494h-.028c-.57-1.243-1.51-2.724-2.11-3.315h-.03v10.48c.14.36.65.98 1.19.98.44 0 .82-.48 1.24-.89l.25.27c-.93.95-2.61 2.79-3.38 3.67-.85-.73-2.61-2.08-3.52-2.72v-.03c.57-.32.77-.86.77-1.83v-8.47c-.18-.53-.6-.88-.91-.88-.26 0-.5.12-.84.48l-.3-.32c.89-.77 2.53-2.4 3.32-3.25l2.04 2.16 2.52-2.22c.31.5 1.08 1.54 1.87 2.43zm-25.585 4.796c-.852.98-1.846 2.132-2.694 3.108-.996-.594-2.98-1.688-3.55-1.688-.396 0-.653.27-1.192.832l-.283-.27c.482-.533 2.354-2.694 2.697-3.14 1.276.683 3.094 1.69 3.633 1.69.34 0 .652-.207 1.104-.8l.285.268z"></path><path d="M218.124 21.348c-.756.826-2.08 2.403-2.7 3.168-1.814-.62-2.894-1.983-2.894-3.643V12.02c-.88-.53-2.328-1.655-3.01-2.22h-.025v10.54c.256.474.85.888 1.305.888.312 0 .427-.088.853-.53l.257.233c-.88.95-2.443 2.69-3.236 3.56-1.107-1-2.215-1.89-3.293-2.63v-.02c.54-.26.69-.77.69-1.63v-8.82c-.23-.41-.67-.85-.95-.85-.25 0-.45.17-.79.49l-.28-.31c1.14-1.04 2.6-2.49 3.25-3.26l2.19 2.11c.56-.44 1.75-1.49 2.39-2.1.97.83 3.06 2.28 4.86 3.35v.03c-.45.27-.74.59-.74 1.28v8.29c0 .74.63 1.33 1.08 1.33.29 0 .52-.2.83-.59l.25.24zM191.384 3.32c-.964.857-1.845 1.895-2.78 2.842-1.08-1.097-1.616-1.688-2.073-1.688-.3 0-.47.06-.76.355l-.28-.3c.91-.86 2.3-2.28 2.78-2.81.97 1.03 1.7 1.65 2.05 1.65.34 0 .51-.09.8-.33l.29.26zm1.42 17.612l-3.236 3.555c-1.02-.918-2.412-2.043-3.23-2.604v-.06c.425-.178.62-.682.62-1.72V11.4c-.254-.59-.566-.857-.937-.857-.19 0-.45.09-.79.474l-.27-.326c1-.88 2.42-2.28 3.31-3.25.56.71 1.98 2.13 2.95 2.96v.03c-.51.21-.82.65-.82 1.19v8.74c.48.65.85.89 1.28.89.23 0 .52-.02.91-.53l.23.24zm-6.984.416c-.755.826-2.08 2.403-2.694 3.168-1.82-.62-2.896-1.983-2.896-3.643V12.02c-.88-.53-2.328-1.655-3.008-2.22h-.03v10.54c.257.474.855.888 1.308.888.312 0 .428-.088.853-.53l.254.233c-.88.95-2.44 2.69-3.233 3.56-1.04-.94-2.2-1.89-3.218-2.61v-.06c.365-.16.604-.52.604-1.57v-8.87c-.227-.41-.64-.83-.924-.83-.254 0-.477.14-.812.47l-.27-.31c1.145-1.02 2.573-2.49 3.227-3.26l2.19 2.11c.56-.44 1.76-1.49 2.39-2.1.97.83 3.07 2.28 4.86 3.35v.03c-.45.27-.74.59-.74 1.28v8.29c0 .74.63 1.33 1.09 1.33.28 0 .51-.2.82-.59l.25.24zm121.608-9.738c-.852.473-5.734 3.73-6.076 5.503v2.28c0 1.394 2.188 2.398 3.322 2.398.482 0 1.135-.65 1.758-1.33l.314.33-3.746 3.7c-3.268-.65-5.082-2.54-5.082-4.5v-6.55c0-.57-.312-1.06-.91-1.24v-.03c1.646-.94 4.797-3.22 6.672-4.73.906 1.13 2.697 3.11 3.748 4.18zm-3.29 1.448c-.88-.946-2.155-2.516-2.753-3.286h-.025v5.92h.025c.625-.976 1.846-1.982 2.754-2.634zm-34.546 6.81c-1.844 1.212-4.54 3.08-6.104 4.646-1.616-1.156-3.688-2.222-4.967-2.724v-.03c.43-.18.69-.562.69-1.63V5.57c-.25-.592-.57-.858-.94-.858-.2 0-.45.09-.79.475l-.31-.326c.99-.88 2.46-2.28 3.35-3.25.57.71 1.99 2.13 2.95 2.96v.03c-.51.21-.82.65-.82 1.19v3.93c.57-.53 1.57-1.59 2.19-2.31 3.07 1.57 4.23 2.52 4.23 4.89v6.46c0 .68.29.98.54 1.1v.03zm-3.972 2.16V12.91c0-1.06-.797-2.162-2.953-2.99h-.028v10.39c.79.385 2.21 1.187 2.95 1.717l.03-.004zM243.1 3.615c0 2.16-1.417 3.818-3.807 3.818-.487 0-.97-.058-1.444-.16V21.42c1.89-.384 2.77-1.27 3.9-2.404l.28.367c-1.45 2.566-3.79 5.398-7.51 5.398-5 0-8.6-3.55-8.6-9.02 0-5 3.38-7.99 6.95-9.98l.28.27c-1.96 1.51-3.78 4.59-3.78 8.62 0 3.09.98 4.78 2.43 5.75.74-.75.81-1.5.81-2.7v-5.86c0-2.16 1.94-3.67 3.83-4.97-2.42-.86-4.78-2.4-7.5-2.4-2.5 0-3.69.8-3.69 2.16 0 1.04.71 1.63 1.45 1.63.48 0 .85-.09 1.13-.29l-.17.83c-.23.06-.51.09-.74.09-1.34 0-2.24-.86-2.24-2.6 0-2.96 2.12-5.09 5.64-5.09 4.5 0 7.42 3.41 10.36 3.41 1.22 0 1.76-.38 1.76-1.21 0-.74-.46-1.15-1.23-1.36l.65-.47c.594.3 1.19 1.07 1.19 2.08zm-5.678 17.872V7.175c-.16-.04-.32-.09-.483-.138-.98.916-1.19 1.744-1.19 3.387v5.92c0 2-1.15 2.825-3.58 4.322 1.17.637 2.58.89 4.17.89.38 0 .73-.023 1.07-.068zm-33.692-11.09c-.368.145-.626.56-.626 1.152v8.22c0 .47.145.89.514 1.09v.03c-1.73.47-4.2 1.86-6.215 3.58-2.73-1.36-4.2-2.73-4.2-5.13v-6.18c0-.48-.2-.89-.655-1.1v-.03c1.986-1.07 4.824-3.29 6.188-4.65.91.74 3.492 2.28 4.996 2.96v.03zm-4.058 11.9V11.842c-.797-.414-2.47-1.448-3.008-1.953h-.026v9.06c0 1.57 1.7 2.72 3.008 3.34h.026z"></path><path d="M172.813 21.094s-2.348 2.67-3.025 3.48c-1.22-.386-2.524-1.216-3.01-2.636l-2.695 2.754c-3.633-.978-6.328-2.637-6.328-6.04V5.776c0-1.065-.428-1.657-1.164-1.657-.68 0-1.34.32-1.34 1.24 0 .53.18.94.4 1.36l-.53-.03c-.17-.33-.36-.84-.36-1.42 0-2.31 1.56-3.58 3.75-3.58 1.85 0 3.01 1.45 3.01 3.55v12.73c0 1.05.33 1.69 1.11 2.32V4.15c0-.624-.17-.857-.43-1.064.34-.326.57-.65.8-1.125h.06v8.76c.62.27 1.19.39 1.76.39.57 0 1.25-.12 1.79-.38V6.11c-.28-.59-.74-1.125-1.25-1.125-.25 0-.4.06-.68.353l-.25-.208 3.09-3.375 3.83 3.347v.03c-.59.208-.97.65-.97 1.45v13.13c0 1.106.77 1.828 1.39 1.828.13 0 .33-.134.48-.3l.36-.38.24.24zm-6.234-7.533v-2.42c-.49.21-1.08.33-1.79.33-.69 0-1.23-.11-1.76-.32v2.43c.53-.2 1.07-.32 1.76-.32.71 0 1.3.12 1.78.33zm.11 8c-.06-.35-.12-.82-.12-1.09v-6.49c-.54-.26-1.22-.38-1.79-.38-.57 0-1.14.12-1.76.39v6.63c.14.1.31.2.48.31.86.51 1.9.77 2.61.77.23 0 .4-.03.57-.12zM114.08 3.6c-.944.836-1.802 1.846-2.715 2.77-1.053-1.067-1.58-1.646-2.023-1.646-.305 0-.47.06-.746.348l-.28-.29c.89-.835 2.245-2.22 2.715-2.74.95 1.01 1.66 1.615 2 1.615.33 0 .5-.085.78-.317l.28.26zm1.88 17.17l-3.157 3.464c-.996-.895-2.382-2.02-3.186-2.566v-.03c.413-.17.635-.66.635-1.67V11.48c-.25-.58-.554-.84-.915-.84-.19 0-.44.087-.772.46l-.305-.315c.97-.865 2.41-2.222 3.27-3.174.554.69 1.937 2.08 2.88 2.89v.03c-.5.21-.804.55-.804 1.16v8.51c.47.64.83.87 1.243.87.22 0 .47-.03.85-.52l.25.23zm-29.414.407c-.75.807-2.02 2.335-2.63 3.088-1.775-.61-2.828-1.935-2.828-3.55v-8.63c-.857-.52-2.27-1.616-2.934-2.165h-.027v10.27c.25.462.83.865 1.27.865.307 0 .416-.088.83-.52l.25.23c-.857.922-2.38 2.625-3.156 3.46-1.08-.98-2.16-1.847-3.21-2.565v-.027c.53-.26.67-.753.67-1.59v-8.6c-.22-.402-.58-.835-.85-.835-.25 0-.41.06-.75.376l-.16-.2c1.05-1.07 2.33-2.426 2.97-3.176L78.1 9.65c.553-.43 1.716-1.44 2.326-2.047.942.81 2.99 2.222 4.738 3.262v.027c-.443.26-.72.578-.72 1.24v8.084c0 .72.608 1.3 1.05 1.3.277 0 .5-.204.804-.58l.25.234zm-56.744 0c-.736.803-2.03 2.34-2.63 3.088-1.774-.61-2.827-1.935-2.827-3.55v-8.63c-.86-.52-2.27-1.616-2.936-2.165h-.03v10.24c.25.46.77.895 1.22.895.39 0 .47-.087.89-.52l.25.23c-.86.895-2.36 2.566-3.16 3.462-.8-.777-2.11-1.79-3.19-2.567v-.028c.5-.23.63-.78.63-1.617V6.853c0-2.746 2.64-4.54 4.33-5.494l.21.3c-.75.56-1.22 1.64-1.22 3.55v4.44c.54-.44 1.71-1.46 2.32-2.05.94.81 2.99 2.22 4.73 3.26v.02c-.45.26-.72.58-.72 1.24v8.08c0 .72.61 1.3 1.05 1.3.27 0 .5-.21.8-.58l.25.23zm119.62-10.68c-.36.143-.61.547-.61 1.125v8.02c0 .463.14.866.5 1.07v.026c-1.69.46-4.1 1.82-6.067 3.49-2.66-1.324-4.1-2.652-4.1-4.99V13.2c0-.462-.194-.866-.638-1.07v-.026c1.94-1.04 4.71-3.205 6.04-4.53.885.72 3.407 2.222 4.875 2.885v.03zm-3.96 11.6v-10.19c-.78-.4-2.41-1.41-2.94-1.903h-.026v8.86c0 1.525 1.66 2.625 2.933 3.23h.03zm-7.952 2.137c0 .78-.66 1.59-2.963 3.235-1.383.98-3.898 1.99-4.478 2.54-.72-1.07-.82-1.56-1.59-1.56-1.25 0-3.49.52-3.93.86l-.2-.2c.5-1.1 3.26-3.15 5.56-3.15 1.46 0 3.02.75 3.54 1.53.58-.55.96-.93.96-1.7 0-1.39-.94-1.71-1.22-3.56h-.03c-.56.46-1.72 1.5-2.3 1.99-1.89-1.48-3.58-2.63-4.74-3.27v-.03c.36-.2.72-.64.72-1.33v-6.4c0-.47-.2-.87-.64-1.07v-.03c1.94-1.04 4.71-3.21 6.04-4.53.88.72 3.4 2.22 4.87 2.88v.03c-.36.14-.61.55-.61 1.12v9.35c0 1.47.97 1.64.97 3.26zm-4.322-2.31v-10.02c-.77-.402-2.407-1.412-2.933-1.904h-.03v9.752c.554.29 1.772 1.213 2.937 2.165h.027v-.008zm-7.365-10.245c-.83.46-5.596 3.64-5.927 5.37v2.22c0 1.35 2.13 2.34 3.237 2.34.472 0 1.11-.64 1.718-1.3l.31.32-3.65 3.6c-3.18-.64-4.95-2.48-4.95-4.39v-6.38c0-.55-.3-1.04-.89-1.21v-.03c1.61-.92 4.69-3.15 6.51-4.62.89 1.09 2.63 3.03 3.66 4.07zm-3.214 1.41c-.86-.93-2.11-2.46-2.69-3.2h-.03v5.77h.02c.61-.95 1.8-1.93 2.69-2.57zm-14.79 6.29c-2.19 1.38-4.99 3.49-6.6 5.02-.92-1.16-2.55-2.48-4.77-2.48-2.24 0-3.71.97-4.68 2.3l-.33-.26c2.1-2.66 2.85-3.46 2.85-5.28v-7.04c0-2.2 1.41-3.27 3.99-5l.27.26c-1.03.92-1.22 1.7-1.22 3.35v6.58c0 1.3-.67 2.37-1.39 2.97v.03c.6-.3 1.67-.62 2.82-.63.26 0 .53.04.8.07V5.92c-1.28.16-2.64.44-4.21.44-1.94 0-3.24-1.21-3.24-3 .03-1.96 1.22-2.94 3.19-3l.16.75c-.81-.11-2.16 0-2.16 1.04 0 .75.63.93 2.05.93 1.49 0 4.07-.666 6.23-.666 4.1 0 5.56 2.25 5.56 5.36v10.02c0 1.27.25 1.47.66 1.53v.06zm-4.35-8.58V9.08c0-2.34-.42-3.263-2.14-3.263-.49 0-.92.024-1.33.064v4.93c.6.26 1.16.38 1.71.38s1.22-.11 1.74-.37zm0 2.77V11.2c-.47.206-1.05.32-1.75.32-.67 0-1.19-.114-1.72-.32v2.37c.52-.2 1.05-.316 1.71-.316.69 0 1.27.114 1.74.315zm0 7.62v-7.22c-.53-.26-1.2-.37-1.75-.37-.56 0-1.11.11-1.72.37v5.38c1.45.31 2.54.91 3.43 1.84h.02zm-29.75-.44c-2.94 3.2-3.16 3.46-3.16 3.46-.81-.75-1.94-1.68-2.55-2.11-.83.81-1.14 1.18-1.97 2.1-2.52-.35-4.04-2.14-4.04-4.45 0-3.23 2.77-5.2 4.59-5.98-1.22-1.7-2.91-3.21-3.8-3.75V10l2.42-2.41c.41.69 1.16 1.27 1.77 1.27.88 0 1.72-.606 2.16-1.27.5.577 2.19 2.136 3.02 2.857v.03c-.58.373-.8.46-.8 1.642v8.05c.16.23.58.86 1.24.86.38 0 .55-.18.85-.52l.25.23zm-5.71-5.92v-4.07l-.64-.66c-.69.72-1.78.8-2.52.83v.03c.88.72 2.68 2.83 3.13 3.87H68zm0 6.61v-4.19c0-.98-.36-2.05-1.11-3.03-.97.63-1.94 1.84-1.94 4.04 0 1.9 1.13 3.37 2.57 3.37.16 0 .3-.03.47-.21zm-6.1-7.22c0 3.86-4.38 7.64-7.34 10.39-.78-.93-2.72-2.37-4.74-2.37-2.44 0-3.49.89-4.49 2.16l-.2-.15c.72-2.74 2.77-4.906 5.65-4.906 2.88 0 4.85 1.27 5.82 2.22 2.52-2.6 3.18-3.72 3.18-5.31 0-1.06-.22-2.42-2.6-3.56-.74-.35-1.69-.69-2.91-1.02l-.44.66c1.47.39 2.53.77 3.29 1.22 1.48.88 1.83 1.94 1.83 3.26 0 .78-.75 1.99-1.39 2.54h-.03c-.08-1.873-.73-2.783-5.35-3.81l-.39-.085c-.26.4-.51.78-.74 1.16-.86 1.382-2.05 1.39-2.05 1.39-.7 0-1.25-.456-1.25-1.04 0-.75.47-1.1 1.1-1.1.603 0 1.06.746 1.41.746.1 0 .19-.04.274-.17l.72-1.106c-2.06-.5-4.51-1.49-4.51-4.06 0-1.1.385-1.903.883-2.48h.03c.275 1.57 1.284 2.32 5.656 3.427l.44-.665-.306-.08c-2.66-.67-5.51-1.39-5.51-4.65 0-3.06 2.66-4.82 6.23-4.82 2.498 0 4.05.75 5.14 1.46l.51-.71.36.26c-1.3 1.81-2.56 3.65-3.81 5.5.416.12.8.23 1.16.36 3.53 1.223 4.35 2.62 4.35 5.34zm-4.29-8.29c-.88-1-2.71-2.22-4.57-2.22-2.61 0-3.49.78-3.49 1.79 0 1.5 2.11 1.81 5.23 2.6.4.1.77.19 1.13.29.57-.85 1.14-1.68 1.68-2.46zm-17.85 5.72c-.83.46-5.6 3.64-5.93 5.37v2.22c0 1.36 2.13 2.34 3.24 2.34.47 0 1.11-.64 1.72-1.3l.3.32-3.66 3.6c-3.19-.64-4.96-2.48-4.96-4.39v-6.37c0-.56-.31-1.04-.89-1.21v-.03c1.61-.92 4.68-3.15 6.51-4.62.88 1.09 2.63 3.03 3.66 4.07zm-3.21 1.42c-.86-.93-2.11-2.46-2.69-3.21h-.03v5.77h.03c.61-.95 1.8-1.94 2.69-2.57zM17.92 3.94c0 2.104-1.36 3.664-3.687 3.664-.48 0-.947-.056-1.412-.154v13.792c2.32-.436 3.39-1.71 4.22-3.16l.35.346c-1.32 2.97-3.54 6.09-7.81 6.09-4.87 0-8.39-3.463-8.39-8.802 0-4.876 3.3-7.792 6.79-9.728l.28.262c-1.91 1.47-3.68 4.47-3.68 8.39 0 3.004.88 4.73 2.3 5.678.72-.73.86-1.537.86-2.705V11.9c0-2.107 1.9-3.576 3.74-4.842-2.36-.834-4.67-2.343-7.32-2.343-2.43 0-3.6.78-3.6 2.11 0 1.008.7 1.585 1.42 1.585.48 0 .84-.086 1.11-.288l-.17.808c-.22.058-.49.086-.71.086C.89 9.018 0 8.182 0 6.478c0-3.09 2.074-4.964 5.512-4.964 4.395 0 7.24 3.32 10.11 3.32 1.19 0 1.716-.376 1.716-1.186 0-.72-.442-1.125-1.19-1.325l.638-.464c.582.23 1.136 1.09 1.136 2.08zm-5.51 17.363V7.35c-.158-.04-.314-.084-.47-.132-.956.892-1.166 1.7-1.166 3.302v5.77c0 1.954-1.162 2.802-3.536 4.26 1.13.622 2.56.822 4.12.822.36 0 .72-.022 1.05-.065z"></path></svg>
